<?xml version="1.0" encoding="utf-8"?>
<!-- Generator: Adobe Illustrator 27.1.1, SVG Export Plug-In . SVG Version: 6.00 Build 0)  -->
<svg version="1.1" id="레이어_1" xmlns="http://www.w3.org/2000/svg" xmlns:xlink="http://www.w3.org/1999/xlink" x="0px"
	 y="0px" width="182.9px" height="182.9px" viewBox="0 0 182.9 182.9" style="enable-background:new 0 0 182.9 182.9;"
	 xml:space="preserve">
<style type="text/css">
	.st0{fill:url(#SVGID_1_);}
	.st1{fill:#FFFFFF;}
</style>
<radialGradient id="SVGID_1_" cx="91.4646" cy="91.4646" r="91.4646" gradientUnits="userSpaceOnUse">
	<stop  offset="0.2178" style="stop-color:#E61773"/>
	<stop  offset="1" style="stop-color:#F3A22F"/>
</radialGradient>
<circle class="st0" cx="91.5" cy="91.5" r="91.5"/>
<path class="st1" d="M37.4,87.5c-0.5-1.3-1.7-2.7-3.4-4.2c-1.8-1.5-4-2.2-6.8-2.2c-2.9,0-5.5,1.1-7.8,3.3c-2.3,2.2-3.4,5-3.4,8.3
	c0,3.3,1.1,6.1,3.4,8.3c2.3,2.2,4.9,3.3,7.8,3.3c2.8,0,5-0.7,6.6-2.1c1.6-1.4,2.8-2.8,3.6-4.2H43c-1,3.3-2.9,6-5.8,8.1
	c-2.9,2.1-6.2,3.1-9.9,3.1c-4.5,0-8.4-1.6-11.8-4.8c-3.4-3.2-5.1-7.1-5.1-11.6c0-4.5,1.7-8.4,5.1-11.6c3.4-3.2,7.3-4.8,11.8-4.8
	c3.7,0,7,1,9.9,3.1c2.9,2.1,4.8,4.8,5.8,8.2H37.4z"/>
<path class="st1" d="M50.3,81c3.3-3.2,7.2-4.8,11.7-4.8c4.6,0,8.5,1.6,11.8,4.8c3.2,3.2,4.9,7.1,4.9,11.6c0,4.5-1.6,8.4-4.9,11.6
	c-3.2,3.2-7.2,4.8-11.8,4.8c-4.5,0-8.5-1.6-11.7-4.8c-3.3-3.2-4.9-7.1-4.9-11.6C45.3,88.1,47,84.2,50.3,81z M54.2,84.5
	c-2.1,2.3-3.2,5-3.2,8.2c0,3.2,1.1,5.9,3.2,8.2c2.1,2.3,4.7,3.4,7.7,3.4c3,0,5.6-1.1,7.8-3.4c2.2-2.3,3.3-5,3.3-8.2
	c0-3.2-1.1-5.9-3.3-8.2C67.6,82.2,65,81,61.9,81C58.9,81,56.3,82.2,54.2,84.5z"/>
<path class="st1" d="M82.1,77h5.6v26.5h16.8v4.9H82.1V77z"/>
<path class="st1" d="M109.2,81c3.3-3.2,7.2-4.8,11.7-4.8c4.6,0,8.5,1.6,11.8,4.8c3.2,3.2,4.9,7.1,4.9,11.6c0,4.5-1.6,8.4-4.9,11.6
	c-3.2,3.2-7.2,4.8-11.8,4.8c-4.5,0-8.5-1.6-11.7-4.8c-3.3-3.2-4.9-7.1-4.9-11.6C104.3,88.1,105.9,84.2,109.2,81z M113.1,84.5
	c-2.1,2.3-3.2,5-3.2,8.2c0,3.2,1.1,5.9,3.2,8.2c2.1,2.3,4.7,3.4,7.7,3.4s5.6-1.1,7.8-3.4c2.2-2.3,3.3-5,3.3-8.2
	c0-3.2-1.1-5.9-3.3-8.2c-2.2-2.3-4.8-3.4-7.8-3.4S115.3,82.2,113.1,84.5z"/>
<path class="st1" d="M146.7,108.3h-5.6V77h14.4c2.4,0,4.6,0.9,6.6,2.7s3,4.1,3,7c0,2.4-0.9,4.6-2.6,6.5c-1.7,1.9-4,3-6.6,3.1
	l9.2,12.1H159l-12.3-16V108.3z M146.7,81.8v9.6h7.9c1.2,0,2.3-0.4,3.3-1.3c1-0.9,1.5-2,1.5-3.4c0-1.5-0.5-2.7-1.5-3.6
	s-2.1-1.3-3.3-1.3H146.7z"/>
</svg>
